<?xml version="1.0" standalone="no"?>
<!DOCTYPE svg PUBLIC "-//W3C//DTD SVG 20010904//EN"
 "http://www.w3.org/TR/2001/REC-SVG-20010904/DTD/svg10.dtd">
<svg version="1.0" xmlns="http://www.w3.org/2000/svg"
 width="415.000000pt" height="415.000000pt" viewBox="0 0 415.000000 415.000000"
 preserveAspectRatio="xMidYMid meet">
<metadata>
Created by potrace 1.14, written by Peter Selinger 2001-2017
</metadata>
<g transform="translate(0.000000,415.000000) scale(0.100000,-0.100000)"
fill="#000000" stroke="none">
<path d="M1875 3693 c-210 -27 -427 -111 -593 -229 -89 -65 -238 -209 -284
-277 -50 -74 -44 -85 9 -15 100 132 292 292 443 368 395 199 837 182 1209 -47
304 -186 521 -457 649 -809 68 -188 107 -435 98 -624 -14 -295 -83 -509 -248
-762 l-70 -108 -30 18 c-65 38 -148 114 -197 181 -29 39 -64 79 -77 90 -13 10
-32 40 -41 67 -14 36 -25 50 -40 52 -27 4 -37 55 -36 177 1 92 19 156 98 350
29 72 68 177 86 235 31 97 33 115 33 230 -2 206 -43 329 -144 430 -54 54 -99
79 -173 95 -16 3 -31 15 -36 28 -15 38 -137 146 -196 173 -118 54 -304 65
-510 30 -54 -9 -85 -9 -140 1 -245 43 -403 -21 -483 -196 -31 -65 -41 -170
-22 -226 13 -39 59 -75 98 -75 27 0 27 -10 2 -88 -31 -94 -93 -324 -94 -349
-1 -20 -6 -23 -43 -23 -23 0 -48 -3 -57 -6 -26 -10 -19 -80 19 -189 20 -55 40
-118 46 -140 14 -56 35 -84 75 -101 19 -8 34 -17 34 -19 0 -3 -16 -20 -36 -37
-73 -64 -92 -151 -53 -237 14 -32 23 -41 30 -34 18 18 39 3 39 -28 0 -16 -11
-51 -23 -77 -40 -79 -81 -246 -72 -295 3 -23 9 -58 12 -77 l5 -35 -27 25 c-40
37 -146 166 -192 235 -57 85 -100 173 -144 297 -131 365 -90 720 142 1224 17
38 33 72 36 77 2 4 0 7 -5 7 -15 0 -43 -53 -99 -185 -119 -280 -166 -478 -167
-705 -1 -165 14 -252 71 -420 58 -172 123 -288 245 -436 32 -39 78 -85 103
-103 27 -19 48 -43 51 -59 4 -15 18 -49 31 -76 41 -82 178 -204 165 -147 -4
19 13 12 38 -14 26 -28 45 -33 36 -10 -8 21 8 19 29 -5 27 -30 36 -24 19 15
-19 47 -18 59 6 35 11 -11 59 -38 107 -60 109 -51 144 -77 200 -154 58 -79 61
-81 29 -21 -14 27 -26 54 -26 60 1 5 21 32 45 58 l44 48 8 -53 c9 -69 10 -63
-6 -137 -14 -61 -13 -66 9 -108 32 -59 57 -58 107 7 21 27 44 49 51 50 8 0 12
20 12 65 0 44 5 74 16 90 l16 25 20 -25 c11 -14 24 -23 29 -20 20 13 7 -15
-36 -79 -32 -49 -45 -78 -45 -103 l0 -36 38 59 c67 104 156 165 348 240 65 25
146 60 179 77 89 44 250 157 338 237 43 38 82 70 88 70 6 0 20 -5 32 -11 21
-10 22 -10 2 6 -22 18 -26 10 57 117 104 134 198 347 244 553 22 99 30 373 14
487 -19 143 -73 343 -124 464 -91 216 -207 386 -367 538 -212 201 -458 330
-709 371 -86 13 -269 18 -345 8z"/>
<path d="M2035 380 c3 -5 10 -10 16 -10 5 0 9 5 9 10 0 6 -7 10 -16 10 -8 0
-12 -4 -9 -10z"/>
</g>
</svg>
